<svg width="18" height="20" viewBox="0 0 18 20" fill="none" xmlns="http://www.w3.org/2000/svg">
<path d="M7.11111 14.7222V11.8889H0.5V8.11111H7.11111V5.27778L11.8333 10L7.11111 14.7222ZM7.11111 0.555557H15.6111C16.1121 0.555557 16.5925 0.754565 16.9468 1.1088C17.301 1.46304 17.5 1.94348 17.5 2.44445V17.5556C17.5 18.0565 17.301 18.537 16.9468 18.8912C16.5925 19.2454 16.1121 19.4444 15.6111 19.4444H7.11111C6.61015 19.4444 6.1297 19.2454 5.77547 18.8912C5.42123 18.537 5.22222 18.0565 5.22222 17.5556V15.6667H7.11111V17.5556H15.6111V2.44445H7.11111V4.33334H5.22222V2.44445C5.22222 1.94348 5.42123 1.46304 5.77547 1.1088C6.1297 0.754565 6.61015 0.555557 7.11111 0.555557Z" fill="white"/>
</svg>
