<svg width="25" height="25" viewBox="0 0 25 25" fill="none" fill="currentColor" xmlns="http://www.w3.org/2000/svg">
<path fill-rule="evenodd" clip-rule="evenodd" d="M13.31 0C14.2382 0 15.1404 0.354713 15.7873 0.971237C16.4329 1.59138 16.7894 2.44197 16.7622 3.30462C16.7648 3.49887 16.8335 3.72328 16.9579 3.91994C17.164 4.24569 17.4894 4.47493 17.8757 4.56904C18.262 4.65832 18.6665 4.61006 19.01 4.42064C20.6694 3.53868 22.7811 4.06713 23.7287 5.59939L24.5364 6.90121C24.5571 6.9362 24.5753 6.96998 24.5908 7.00497C25.449 8.51431 24.876 10.4146 23.2815 11.282C23.0495 11.4063 22.8615 11.58 22.7318 11.79C22.5309 12.1145 22.4752 12.5006 22.5763 12.8553C22.68 13.2173 22.9276 13.5177 23.2763 13.7035C24.0632 14.1246 24.6504 14.834 24.8851 15.6532C25.1197 16.4712 24.9914 17.3592 24.5338 18.0915L23.673 19.4259C22.7254 20.9413 20.6136 21.4661 18.9711 20.583C18.7521 20.466 18.4993 20.402 18.2478 20.396H18.24C17.8654 20.396 17.4804 20.5444 17.2003 20.8038C16.9164 21.068 16.7609 21.4203 16.7635 21.7943C16.7544 23.5667 15.2053 25 13.31 25H11.6857C9.78135 25 8.23221 23.5594 8.23221 21.7871C8.22962 21.5687 8.16221 21.3419 8.03647 21.1452C7.83294 20.8146 7.50367 20.5782 7.12384 20.484C6.7466 20.3899 6.33307 20.4418 5.99342 20.6252C5.17932 21.0475 4.22132 21.15 3.34499 20.9208C2.46995 20.6904 1.71418 20.1305 1.27083 19.3885L0.460618 18.0891C-0.487012 16.5593 0.0768989 14.5987 1.71807 13.7156C2.18346 13.4658 2.47255 13.0001 2.47255 12.5006C2.47255 12.0011 2.18346 11.5342 1.71807 11.2844C0.0756027 10.3965 -0.487012 8.43106 0.459321 6.90121L1.33824 5.55837C2.27291 4.04541 4.38595 3.51214 6.03361 4.39289C6.25788 4.51716 6.50159 4.57989 6.74919 4.58231C7.55682 4.58231 8.23221 3.96216 8.24518 3.19965C8.23999 2.35872 8.59649 1.55157 9.24596 0.942281C9.89802 0.334202 10.764 0 11.6857 0H13.31ZM13.31 1.80976H11.6857C11.2838 1.80976 10.9079 1.95575 10.624 2.21876C10.3414 2.48299 10.1871 2.83408 10.1897 3.2081C10.1625 4.97201 8.61334 6.39207 6.73753 6.39207C6.13602 6.38603 5.55656 6.23522 5.05357 5.95531C4.34706 5.58129 3.42407 5.81174 3.01053 6.48135L2.1329 7.82419C1.73104 8.47329 1.97734 9.33111 2.69293 9.7184C3.75463 10.2903 4.41707 11.3568 4.41707 12.5006C4.41707 13.6444 3.75463 14.7097 2.69033 15.2828C1.97864 15.6665 1.73233 16.5195 2.14457 17.1831L2.96257 18.4957C3.1648 18.8348 3.49536 19.0797 3.87779 19.1798C4.25891 19.2787 4.67893 19.2365 5.02894 19.0555C5.54359 18.7744 6.1425 18.6284 6.74401 18.6284C7.04087 18.6284 7.33774 18.6634 7.62812 18.7358C8.50445 18.9554 9.2654 19.5007 9.71653 20.2331C10.0095 20.6928 10.1715 21.2297 10.1767 21.7774C10.1767 22.5617 10.8534 23.1902 11.6857 23.1902H13.31C14.1384 23.1902 14.8151 22.5653 14.819 21.7943C14.8138 20.9425 15.1716 20.133 15.8262 19.5237C16.4718 18.9228 17.3741 18.5621 18.2763 18.5862C18.8674 18.5995 19.4365 18.7479 19.9382 19.0133C20.6603 19.3982 21.582 19.169 21.9994 18.5054L22.8602 17.1698C23.052 16.8621 23.1078 16.476 23.0054 16.1201C22.9043 15.7642 22.6502 15.4553 22.3079 15.2732C21.5068 14.8436 20.9351 14.1511 20.6979 13.321C20.4632 12.5066 20.5916 11.6174 21.0492 10.8851C21.3474 10.4025 21.7842 9.9959 22.3079 9.71599C23.0106 9.33353 23.2569 8.47811 22.8485 7.81212C22.8317 7.78558 22.8161 7.75783 22.8032 7.72887L22.0435 6.50306C21.63 5.83345 20.7095 5.60301 19.9875 5.98547C19.2071 6.41499 18.2789 6.53805 17.387 6.31968C16.4964 6.10492 15.7497 5.58009 15.2843 4.83929C14.9862 4.37599 14.8241 3.83669 14.819 3.28773C14.8306 2.8751 14.6751 2.50471 14.3925 2.23324C14.1111 1.96298 13.7158 1.80976 13.31 1.80976ZM12.5035 8.41429C14.9238 8.41429 16.893 10.2482 16.893 12.5007C16.893 14.7533 14.9238 16.5847 12.5035 16.5847C10.0833 16.5847 8.11412 14.7533 8.11412 12.5007C8.11412 10.2482 10.0833 8.41429 12.5035 8.41429ZM12.5035 10.224C11.1553 10.224 10.0586 11.246 10.0586 12.5007C10.0586 13.7555 11.1553 14.775 12.5035 14.775C13.8517 14.775 14.9485 13.7555 14.9485 12.5007C14.9485 11.246 13.8517 10.224 12.5035 10.224Z"/>
</svg>
