<svg width="22" height="14" viewBox="0 0 22 14" fill="none" xmlns="http://www.w3.org/2000/svg">
<path fill-rule="evenodd" clip-rule="evenodd" d="M0.25 1C0.25 0.585786 0.585786 0.25 1 0.25H21C21.4142 0.25 21.75 0.585786 21.75 1C21.75 1.41421 21.4142 1.75 21 1.75H1C0.585786 1.75 0.25 1.41421 0.25 1ZM0.25 7C0.25 6.58579 0.585786 6.25 1 6.25H21C21.4142 6.25 21.75 6.58579 21.75 7C21.75 7.41421 21.4142 7.75 21 7.75H1C0.585786 7.75 0.25 7.41421 0.25 7ZM1 12.25C0.585786 12.25 0.25 12.5858 0.25 13C0.25 13.4142 0.585786 13.75 1 13.75H21C21.4142 13.75 21.75 13.4142 21.75 13C21.75 12.5858 21.4142 12.25 21 12.25H1Z" fill="white"/>
</svg>
