<svg width="15" height="15" viewBox="0 0 15 15" fill="none" xmlns="http://www.w3.org/2000/svg">
<path d="M6.06877 7.05618C5.95108 6.93849 5.79146 6.87238 5.62502 6.87238C5.45859 6.87238 5.29896 6.93849 5.18127 7.05618C5.06358 7.17387 4.99747 7.3335 4.99747 7.49993C4.99747 7.66637 5.06358 7.82599 5.18127 7.94368L7.05627 9.81868C7.11467 9.87661 7.18393 9.92244 7.26008 9.95354C7.33623 9.98464 7.41777 10.0004 7.50002 9.99993C7.58559 9.99722 7.66968 9.97696 7.74709 9.9404C7.82449 9.90385 7.89357 9.85178 7.95002 9.78743L12.325 4.78743C12.426 4.66201 12.4748 4.50244 12.461 4.34199C12.4472 4.18153 12.3721 4.03258 12.2512 3.92619C12.1303 3.8198 11.973 3.76418 11.8121 3.77094C11.6512 3.77769 11.4991 3.84629 11.3875 3.96243L7.50002 8.46243L6.06877 7.05618Z" fill="#7EBD4C"/>
<path d="M13.1251 6.875C12.9593 6.875 12.8004 6.94085 12.6832 7.05806C12.5659 7.17527 12.5001 7.33424 12.5001 7.5C12.5001 8.82608 11.9733 10.0979 11.0356 11.0355C10.0979 11.9732 8.82618 12.5 7.5001 12.5C6.51265 12.4995 5.54745 12.2067 4.7262 11.6585C3.90495 11.1102 3.26442 10.331 2.8854 9.41923C2.50637 8.50743 2.40581 7.50381 2.5964 6.53493C2.78699 5.56605 3.2602 4.6753 3.95635 3.975C4.41929 3.50586 4.97115 3.13378 5.57963 2.88051C6.18812 2.62724 6.84101 2.49788 7.5001 2.5C7.89975 2.5025 8.29794 2.54861 8.6876 2.6375C8.76914 2.66272 8.85498 2.67097 8.93984 2.66175C9.02469 2.65252 9.10675 2.62602 9.18097 2.58386C9.25519 2.54171 9.31998 2.4848 9.37136 2.41664C9.42274 2.34848 9.45961 2.27052 9.47971 2.18757C9.49981 2.10462 9.5027 2.01843 9.48821 1.93431C9.47372 1.8502 9.44216 1.76994 9.39546 1.69849C9.34877 1.62705 9.28794 1.56592 9.21672 1.51888C9.14549 1.47184 9.06539 1.43989 8.98135 1.425C8.49581 1.31078 7.99888 1.25207 7.5001 1.25C6.26531 1.25641 5.06009 1.62845 4.03653 2.31916C3.01298 3.00986 2.21695 3.98829 1.74892 5.13096C1.28089 6.27362 1.16182 7.52933 1.40674 8.7396C1.65167 9.94987 2.2496 11.0605 3.1251 11.9312C4.28553 13.0922 5.85863 13.7462 7.5001 13.75C9.1577 13.75 10.7474 13.0915 11.9195 11.9194C13.0916 10.7473 13.7501 9.1576 13.7501 7.5C13.7501 7.33424 13.6842 7.17527 13.567 7.05806C13.4498 6.94085 13.2909 6.875 13.1251 6.875Z" fill="#7EBD4C"/>
</svg>
