<svg width="20" height="20" viewBox="0 0 20 20" fill="none" fill="currentColor" xmlns="http://www.w3.org/2000/svg">
<path fill-rule="evenodd" clip-rule="evenodd" d="M11.4312 13.7909C12.6059 13.7909 13.562 14.6958 13.562 15.8081V18.6688C13.562 18.9078 13.7629 19.0994 14.0205 19.105H15.88C17.3454 19.105 18.5366 17.9834 18.5366 16.6051V8.49177C18.5298 8.01747 18.2927 7.57106 17.8859 7.27439L11.4537 2.38442C10.5902 1.73249 9.38244 1.73249 8.5161 2.38628L2.1278 7.27253C1.70537 7.5785 1.46829 8.02491 1.46341 8.50758V16.6051C1.46341 17.9834 2.65463 19.105 4.12 19.105H5.99707C6.26146 19.105 6.4761 18.905 6.4761 18.6595C6.4761 18.6056 6.48293 18.5516 6.49463 18.5005V15.8081C6.49463 14.7023 7.44488 13.7984 8.61073 13.7909H11.4312ZM15.88 20.5H14.0029C12.9278 20.4758 12.0985 19.6714 12.0985 18.6688V15.8081C12.0985 15.465 11.799 15.1859 11.4312 15.1859H8.61561C8.25561 15.1878 7.95805 15.4677 7.95805 15.8081V18.6595C7.95805 18.7293 7.94829 18.7962 7.92781 18.8595C7.82244 19.7802 6.99707 20.5 5.99707 20.5H4.12C1.8478 20.5 0 18.7525 0 16.6051V8.50107C0.0097561 7.57664 0.456585 6.73034 1.22829 6.17327L7.6039 1.29539C9.0078 0.235181 10.9639 0.235181 12.3649 1.29353L18.7863 6.17606C19.5405 6.72383 19.9873 7.56827 20 8.48154V16.6051C20 18.7525 18.1522 20.5 15.88 20.5Z" />
</svg>
